<svg width="29" height="31" viewBox="0 0 29 31" fill="none" xmlns="http://www.w3.org/2000/svg">
<path fill-rule="evenodd" clip-rule="evenodd" d="M28.1212 14.2496H1.75757V12.492H28.1212V14.2496Z" fill="white"/>
<path d="M22 17.5941C22 17.266 22.2336 17 22.5217 17H24.4783C24.7664 17 25 17.266 25 17.5941V21.4059C25 21.734 24.7664 22 24.4783 22H22.5217C22.2336 22 22 21.734 22 21.4059V17.5941Z" fill="white"/>
<path d="M4 17.5941C4 17.266 4.23359 17 4.52174 17H6.47826C6.76641 17 7 17.266 7 17.5941V21.4059C7 21.734 6.76641 22 6.47826 22H4.52174C4.23359 22 4 21.734 4 21.4059V17.5941Z" fill="white"/>
<path fill-rule="evenodd" clip-rule="evenodd" d="M26.5961 6.48138H2.40395C2.19321 6.48138 2.02237 6.65222 2.02237 6.86296V28.1551C2.02237 28.3658 2.19321 28.5366 2.40395 28.5366H9.0625V25.0452C9.0625 22.0316 11.5055 19.5886 14.5191 19.5886C17.5327 19.5886 19.9757 22.0316 19.9757 25.0452V28.5366H26.5961C26.8068 28.5366 26.9776 28.3658 26.9776 28.1551V6.86296C26.9776 6.65222 26.8068 6.48138 26.5961 6.48138ZM11.0849 26.3235H11.0655V30.559H2.40395C1.07628 30.559 0 29.4827 0 28.1551V6.86296C0 5.5353 1.07628 4.45901 2.40395 4.45901H26.5961C27.9237 4.45901 29 5.5353 29 6.86296V28.1551C29 29.4827 27.9237 30.559 26.5961 30.559H17.9721V26.3235H17.9533V25.0452C17.9533 23.1485 16.4157 21.611 14.5191 21.611C12.6224 21.611 11.0849 23.1485 11.0849 25.0452V26.3235Z" fill="white"/>
<path fill-rule="evenodd" clip-rule="evenodd" d="M10.5454 2.12949C9.29399 2.12949 8.2795 3.0546 8.2795 4.19578V8.88537C8.2795 9.42123 7.80313 9.85563 7.21549 9.85563C6.62786 9.85563 6.15149 9.42123 6.15149 8.88537V4.19578C6.15149 1.98288 8.11872 0.188965 10.5454 0.188965C12.9721 0.188965 14.9394 1.98288 14.9394 4.19578V5.30749C14.9394 5.84335 14.463 6.27775 13.8754 6.27775C13.2877 6.27775 12.8114 5.84335 12.8114 5.30749V4.19578C12.8114 3.0546 11.7969 2.12949 10.5454 2.12949Z" fill="white"/>
<path fill-rule="evenodd" clip-rule="evenodd" d="M21.0909 2.12949C19.8395 2.12949 18.825 3.0546 18.825 4.19578V8.88537C18.825 9.42123 18.3486 9.85563 17.761 9.85563C17.1733 9.85563 16.697 9.42123 16.697 8.88537V4.19578C16.697 1.98288 18.6642 0.188965 21.0909 0.188965C23.5176 0.188965 25.4848 1.98288 25.4848 4.19578V5.30749C25.4848 5.84335 25.0085 6.27775 24.4208 6.27775C23.8332 6.27775 23.3568 5.84335 23.3568 5.30749V4.19578C23.3568 3.0546 22.3423 2.12949 21.0909 2.12949Z" fill="white"/>
</svg>
